<?xml version="1.0" encoding="UTF-8"?>
<svg width="40.041" height="40.041" version="1.1" viewBox="0 0 10.594 10.594" xmlns="http://www.w3.org/2000/svg" xmlns:cc="http://creativecommons.org/ns#" xmlns:dc="http://purl.org/dc/elements/1.1/" xmlns:rdf="http://www.w3.org/1999/02/22-rdf-syntax-ns#">
 <metadata>
  <rdf:RDF>
   <cc:Work rdf:about="">
    <dc:format>image/svg+xml</dc:format>
    <dc:type rdf:resource="http://purl.org/dc/dcmitype/StillImage"/>
   </cc:Work>
  </rdf:RDF>
 </metadata>
 <g transform="translate(-42.525 -200.67)">
  <g transform="matrix(.66735 0 0 .66735 -88.919 71.304)" style="fill:#c4c4c4">
   <path d="m196.97 201.78c0 4.3897 3.5478 7.9375 7.9375 7.9375 4.3897 0 7.9375-3.5478 7.9375-7.9375 0-4.3897-3.5478-7.9375-7.9375-7.9375-4.3897 0-7.9375 3.5598-7.9375 7.9375zm1.757 3.1575c0-0.63138 0.50511-1.1365 1.1365-1.1365 0.6314 0 1.1365 0.5051 1.1365 1.1365 0 0.63135-0.50513 1.1364-1.1365 1.1364-0.63141 0-1.1365-0.5051-1.1365-1.1364zm1.7679-3.0306c0-0.63136 0.50513-1.1365 1.1365-1.1365 0.6314 0 1.1365 0.5051 1.1365 1.1365 0 0.63137-0.50512 1.1365-1.1365 1.1365-0.63141 0-1.1365-0.50509-1.1365-1.1365zm1.5154 3.0306c0-0.63138 0.50513-1.1365 1.1365-1.1365s1.1366 0.5051 1.1366 1.1365c0 0.63135-0.50515 1.1364-1.1366 1.1364s-1.1365-0.5051-1.1365-1.1364zm0-6.0611c0-0.63136 0.50513-1.1364 1.1365-1.1364s1.1366 0.50508 1.1366 1.1364c0 0.63138-0.50515 1.1365-1.1366 1.1365s-1.1365-0.50508-1.1365-1.1365zm1.7679 3.0306c0-0.63136 0.50515-1.1365 1.1365-1.1365 0.63141 0 1.1366 0.5051 1.1366 1.1365 0 0.63137-0.50514 1.1365-1.1366 1.1365-0.63138 0-1.1365-0.50509-1.1365-1.1365zm3.4e-4 -6.0611c0-0.63137 0.50515-1.1365 1.1365-1.1365 0.6314 0 1.1365 0.5051 1.1365 1.1365 0 0.63136-0.50513 1.1364-1.1365 1.1364-0.63139 0-1.1365-0.50508-1.1365-1.1364zm1.7676 9.0916c0-0.63138 0.50514-1.1365 1.1365-1.1365s1.1365 0.5051 1.1365 1.1365c0 0.63135-0.50513 1.1364-1.1365 1.1364s-1.1365-0.5051-1.1365-1.1364zm0-6.0611c0-0.63136 0.50514-1.1364 1.1365-1.1364s1.1365 0.50508 1.1365 1.1364c0 0.63138-0.50513 1.1365-1.1365 1.1365s-1.1365-0.50508-1.1365-1.1365zm1.5154 3.0306c0-0.63136 0.50513-1.1365 1.1365-1.1365 0.6314 0 1.1365 0.5051 1.1365 1.1365 0 0.63137-0.50511 1.1365-1.1365 1.1365-0.63141 0-1.1365-0.50509-1.1365-1.1365zm1.7679 3.0306c0-0.63138 0.50511-1.1365 1.1365-1.1365s1.1365 0.5051 1.1365 1.1365c0 0.63135-0.50512 1.1364-1.1365 1.1364s-1.1365-0.5051-1.1365-1.1364z" style="fill:#c4c4c4;stroke-width:.12026"/>
  </g>
 </g>
</svg>
